<svg width="1097" height="365" viewBox="0 0 1097 365" fill="none" xmlns="http://www.w3.org/2000/svg">
<path fill-rule="evenodd" clip-rule="evenodd" d="M227.991 249.291L367.804 249.399L368.052 9.55389e-05C330.748 -0.0285706 293.803 6.39393 259.326 18.9009C248.556 22.8079 238.093 27.2847 227.991 32.2994V249.291Z" fill="url(#paint0_linear_6_3)"/>
<path fill-rule="evenodd" clip-rule="evenodd" d="M78.3769 175.782C107.774 146.384 143.307 124.533 181.965 111.475V298.636H330.748V365H267.595L0 365C1.07163e-05 294.029 28.193 225.965 78.3769 175.782Z" fill="url(#paint1_linear_6_3)"/>
<path d="M462.958 271.901C439.578 271.901 427.888 258.811 427.888 232.631V133.301C427.888 124.481 432.228 120.071 440.908 120.071C449.728 120.071 454.138 124.481 454.138 133.301V231.371C454.138 243.971 459.388 250.271 469.888 250.271C471.008 250.271 472.058 250.271 473.038 250.271C474.018 250.131 474.998 249.991 475.978 249.851C477.938 249.571 479.268 250.131 479.968 251.531C480.668 252.791 481.018 255.451 481.018 259.511C481.018 263.011 480.318 265.741 478.918 267.701C477.518 269.661 475.208 270.851 471.988 271.271C469.048 271.691 466.038 271.901 462.958 271.901ZM544.533 271.901C532.913 271.901 522.903 269.731 514.503 265.391C506.103 261.051 499.593 254.891 494.973 246.911C490.493 238.931 488.253 229.481 488.253 218.561C488.253 207.921 490.423 198.611 494.763 190.631C499.243 182.651 505.333 176.421 513.033 171.941C520.873 167.321 529.763 165.011 539.703 165.011C554.263 165.011 565.743 169.631 574.143 178.871C582.683 188.111 586.953 200.711 586.953 216.671C586.953 221.851 583.593 224.441 576.873 224.441H513.453C515.413 242.781 525.913 251.951 544.953 251.951C548.593 251.951 552.653 251.531 557.133 250.691C561.753 249.711 566.093 248.101 570.153 245.861C573.793 243.761 576.873 243.131 579.393 243.971C581.913 244.671 583.663 246.141 584.643 248.381C585.763 250.621 585.903 253.141 585.063 255.941C584.363 258.601 582.403 260.911 579.183 262.871C574.283 265.951 568.613 268.261 562.173 269.801C555.873 271.201 549.993 271.901 544.533 271.901ZM540.753 182.861C533.053 182.861 526.823 185.241 522.063 190.001C517.303 194.761 514.433 201.201 513.453 209.321H565.113C564.553 200.781 562.173 194.271 557.973 189.791C553.913 185.171 548.173 182.861 540.753 182.861ZM620.761 271.481C612.081 271.481 607.741 267.001 607.741 258.041V178.661C607.741 169.841 612.011 165.431 620.551 165.431C629.091 165.431 633.361 169.841 633.361 178.661V183.071C636.861 177.191 641.551 172.711 647.431 169.631C653.451 166.551 660.171 165.011 667.591 165.011C691.811 165.011 703.921 179.081 703.921 207.221V258.041C703.921 267.001 699.581 271.481 690.901 271.481C682.081 271.481 677.671 267.001 677.671 258.041V208.481C677.671 200.501 676.131 194.691 673.051 191.051C670.111 187.411 665.491 185.591 659.191 185.591C651.491 185.591 645.331 188.041 640.711 192.941C636.231 197.701 633.991 204.071 633.991 212.051V258.041C633.991 267.001 629.581 271.481 620.761 271.481ZM770.063 271.901C761.103 271.901 753.193 269.731 746.333 265.391C739.613 261.051 734.363 254.891 730.583 246.911C726.803 238.791 724.913 229.271 724.913 218.351C724.913 207.291 726.803 197.841 730.583 190.001C734.363 182.021 739.613 175.861 746.333 171.521C753.193 167.181 761.103 165.011 770.063 165.011C777.343 165.011 783.923 166.621 789.803 169.841C795.683 173.061 800.093 177.331 803.033 182.651V133.301C803.033 124.481 807.373 120.071 816.053 120.071C824.873 120.071 829.283 124.481 829.283 133.301V258.041C829.283 267.001 824.943 271.481 816.263 271.481C807.583 271.481 803.243 267.001 803.243 258.041V253.631C800.303 259.231 795.893 263.711 790.013 267.071C784.133 270.291 777.483 271.901 770.063 271.901ZM777.413 251.951C785.253 251.951 791.553 249.151 796.313 243.551C801.073 237.811 803.453 229.411 803.453 218.351C803.453 207.151 801.073 198.821 796.313 193.361C791.553 187.761 785.253 184.961 777.413 184.961C769.573 184.961 763.273 187.761 758.513 193.361C753.753 198.821 751.373 207.151 751.373 218.351C751.373 229.411 753.753 237.811 758.513 243.551C763.273 249.151 769.573 251.951 777.413 251.951ZM862.801 269.801C859.161 269.801 856.431 268.681 854.611 266.441C852.791 264.061 852.021 261.261 852.301 258.041C852.581 254.821 854.051 251.741 856.711 248.801L906.061 186.851H861.541C854.821 186.851 851.461 183.561 851.461 176.981C851.461 170.401 854.821 167.111 861.541 167.111H923.701C927.901 167.111 930.981 168.231 932.941 170.471C935.041 172.711 935.951 175.441 935.671 178.661C935.531 181.741 934.131 184.751 931.471 187.691L881.491 250.061H928.531C935.251 250.061 938.611 253.351 938.611 259.931C938.611 266.511 935.251 269.801 928.531 269.801H862.801ZM980.363 309.281C975.603 309.281 972.313 307.531 970.493 304.031C968.673 300.531 968.743 296.541 970.703 292.061L982.673 265.601L946.763 182.861C944.803 178.241 944.803 174.181 946.763 170.681C948.723 167.181 952.573 165.431 958.313 165.431C961.533 165.431 964.123 166.201 966.083 167.741C968.043 169.141 969.793 171.871 971.333 175.931L996.533 238.931L1022.36 175.721C1023.9 171.801 1025.72 169.141 1027.82 167.741C1029.92 166.201 1032.72 165.431 1036.22 165.431C1040.7 165.431 1043.85 167.181 1045.67 170.681C1047.49 174.181 1047.42 178.171 1045.46 182.651L994.433 299.201C992.613 303.121 990.653 305.781 988.553 307.181C986.453 308.581 983.723 309.281 980.363 309.281Z" fill="black"/>
<defs>
<linearGradient id="paint0_linear_6_3" x1="298.022" y1="0" x2="298.022" y2="249.399" gradientUnits="userSpaceOnUse">
<stop stop-color="#FDAC48"/>
<stop offset="1" stop-color="#FF4AA0"/>
</linearGradient>
<linearGradient id="paint1_linear_6_3" x1="68.5044" y1="210.33" x2="185.711" y2="463.475" gradientUnits="userSpaceOnUse">
<stop stop-color="#FDA153"/>
<stop offset="1" stop-color="#FF4AA0"/>
</linearGradient>
</defs>
</svg>
